<svg version="1.2" xmlns="http://www.w3.org/2000/svg" viewBox="0 0 503 85" width="503" height="85">
	<title>cadastur-seeklogo</title>
	<style>
		.s0 { fill: #ffffff } 
		.s1 { fill: #8acf25 } 
		.s2 { fill: #fbc707 } 
	</style>
	<g id="layer1">
		<g id="g124">
			<g>
				<g id="g126">
					<g id="g1312">
						<path id="path1314" class="s0" d="m198.1 18.9c-17.7 0-31.9 9.5-31.9 29.2 0 11.7 10 19.1 22.9 19.1 4.4 0 9.6-0.6 13.8-1.8l1.5-9.7c-3.5 1.2-6.9 2-10.7 2-7.8 0-12.5-4.2-12.5-11 0-11.3 7.3-17.9 17.9-17.9 3.8 0 7.7 1 9.9 2.4l3.2-9.6c-1.8-1-6.8-2.7-14.1-2.7z"/>
					</g>
					<g id="g1316">
						<path id="path1318" class="s0" d="m239.6 30.4c-14.1 0-31 8.2-31 25.5 0 6.6 3.8 11.4 12.1 11.4 6.6 0 10.6-3.4 13.7-8.2-0.6 2.8-1.2 5.8-1.4 7.4h14c0.2-2.2 0.4-5.2 1.6-10.2l5.5-23.9c-2.7-1.2-9.5-2-14.5-2zm-12.3 28.3c-3 0-4-2-4-4.6 0-9.3 7.2-15.9 14.1-15.9 0.6 0 1.4 0 2 0.2l-1.6 6.2c-2 7.9-5.9 14.1-10.5 14.1z"/>
					</g>
					<g id="g1320">
						<path id="path1322" class="s0" d="m304.9 15.9h-13.6l-4.5 20.1c-1.4-3.6-5-5.8-10-5.8-11.7 0-20.1 11-20.1 25.1 0 4.4 2.2 11.7 12.2 11.7 5.7 0 9.9-2.2 13.3-7.1l-1 6.3h12.7c0.4-2.4 0.8-4.7 1.6-8.9zm-29.2 43c-3.6 0-4.6-2.6-4.6-5.6 0-5 2.6-14.9 9.2-14.9 3.7 0 4.5 2.8 4.5 5.7 0.2 5-2.6 14.8-9.1 14.8z"/>
					</g>
					<g id="g1324">
						<path id="path1326" class="s0" d="m334.6 30.4c-14.1 0-31 8.2-31 25.5 0 6.6 3.9 11.4 12.1 11.4 6.6 0 10.7-3.4 13.7-8.2-0.6 2.8-1.2 5.8-1.4 7.4h14c0.2-2.2 0.4-5.2 1.6-10.2l5.5-23.9c-2.6-1.2-9.5-2-14.5-2zm-12.3 28.3c-3 0-4-2-4-4.6 0-9.3 7.3-15.9 14.1-15.9 0.6 0 1.4 0 2 0.2l-1.6 6.2c-2.2 7.9-5.8 14.1-10.5 14.1z"/>
					</g>
					<g id="g1328">
						<path id="path1330" class="s0" d="m373.9 30.3c-8.2 0-20.5 2.5-20.5 12.3 0 9.7 16.3 9.1 16.3 13.5 0 3.2-5.2 3.8-7.8 3.8-3.8 0-7.3-1-10.7-2.8l-2.4 8.2c4.4 1.2 8.9 1.8 13.5 1.8 8.8 0 20.7-2.4 20.7-12.8 0-9.3-16.7-8.9-16.7-13.5 0-3 4.4-3.4 6.8-3.4 3.5 0 6.9 0.8 10.1 2l2.6-7.6c-3.6-0.8-7.8-1.5-11.9-1.5z"/>
					</g>
					<g id="g1332">
						<path id="path1334" class="s0" d="m413 20.4l-14.4 4-1.4 6.7h-6.5l-1.8 8h6.5l-3.5 14.9c-0.4 1.6-0.6 3.2-0.6 5 0 6 4.1 8.1 9.7 8.1 4.4 0 8.2-0.8 10.6-1.5l1.4-8.2c-1.4 0.4-2.8 0.8-4.2 0.8-2 0-3.4-0.6-3.4-2.8 0-1 0-1.6 0.2-2.6l3-13.5h8.1l1.8-8h-8.1z"/>
					</g>
					<g id="g1336">
						<path id="path1338" class="s0" d="m462.1 31h-13.7l-4.6 20.7c-0.8 3.4-2.6 7.2-7 7.2-2.6 0-3.8-1.4-3.8-3.4 0-1 0.2-2.2 0.4-3.2l4.6-21.3h-13.5l-5.2 23.9c-0.2 1.2-0.4 2.6-0.4 3.8 0 6.1 4.4 8.5 10.4 8.5 6.3 0 10.3-3.2 13.5-7.1l-1 6.3h12.9c0.2-2.6 0.8-5.2 1.4-7.7z"/>
					</g>
					<g id="g1340">
						<path id="path1342" class="s0" d="m494.4 30.3c-5.8 0-10.2 3.7-12.8 8.5l1.4-7.6h-12.9c-0.2 2.6-0.8 5-1.4 7.6l-6.2 27.7h13.7l3.2-14.2c1.2-5.7 5.2-10.5 11.6-10.5 1.2 0 2.2 0 3 0.4l3.1-11.4c-0.6-0.5-1.6-0.5-2.7-0.5z"/>
					</g>
					<g id="g1344">
						<path id="path1346" class="s1" d="m212.4 16.8c-0.4-1.2-17.5-12.5-38.4-13.9-21.3-2.2-45.6 7.5-70.1 24.3-24.5 16.9-48.3 28.2-68.6 28.4-19.9 1.2-35.6-6.9-34.5-4.2 0.4 1.2 17.4 12.4 38.3 13.8 21.6 2.4 45.9-7.2 70.2-24.1 24.5-16.9 48.3-28.1 68.6-28.3 19.9-1.2 35.5 6.6 34.5 4z"/>
					</g>
					<g id="g1348">
						<path id="path1350" class="s2" d="m201.8 70.5c-0.4 1.2-16.1 11.1-35.6 11.3-19.9 1-43-9.9-66.7-27.6-23.5-17.9-46.2-29.9-65.3-31.3-18.7-2.3-33.2 4.4-32.4 2 0.4-1.2 16.1-11.1 35.6-11.3 19.9-1 43.2 9.9 66.7 27.6 23.5 17.6 46.2 29.9 65.3 31.3 18.7 2.4 33.2-4.4 32.4-2z"/>
					</g>
				</g>
			</g>
		</g>
	</g>
</svg>